# xmcd CD database file
#
# Track frame offsets:
#	150
#	20087
#	32785
#	49130
#	62275
#	76535
#	101265
#	120455
#	135390
#	155417
#	174437
#	191840
#	210367
#	230307
#	247027
#	263487
#	282202
#	299982
#	322067
#
# Disc length: 4620 seconds
#
# Revision: 5
# Processed by: cddbd v1.5.1PL0 Copyright (c) Steve Scherf et al.
# Submitted via: CDex 1.51
#
DISCID=04120a13
DTITLE=Various Artist - The Love Album II Disc Two
DYEAR=1995
DGENRE=Ballad
TTITLE0=Jennifer Rush - The Power Of Love
TTITLE1=Dusty Springfield - You Don't Have To Say You Love Me
TTITLE2=Denise Welch - Cry Me A River (From Soldier Soldier)
TTITLE3=Ben E King - Stand By Me
TTITLE4=Nat 'King' Cole - When I Fall In Love
TTITLE5=Frankie Goes To Hollywood - The Power Of Love
TTITLE6=David Bowie - China Girl
TTITLE7=Madness - It Must Be Love
TTITLE8=Paul Young - Everytime You Go Away
TTITLE9=Sophie B. Hawkins - Damn...I Wish I Was Your Lover
TTITLE10=Scarlet - Independant Love Song
TTITLE11=T'Pau - China In Your Hand
TTITLE12=Curtis Stigers - I Wonder Why
TTITLE13=Take That - Pray
TTITLE14=Boyzone - Love Me For A Reason
TTITLE15=Let Loose - Crazy For You
TTITLE16=Jimmy Nail - Love Don't Live Here Any More
TTITLE17=Roxy Music - Jealous Guy
TTITLE18=Spandau Ballet - True
EXTD=YEAR: 1995
EXTT0=Jennifer Rush
EXTT1=Dusty Springfield
EXTT2=Denise Welch
EXTT3=Ben E King
EXTT4=Nat King Cole
EXTT5=Frankie Goes To Hollywood
EXTT6=David Bowie
EXTT7=Madness
EXTT8=Paul Young
EXTT9=Sophie B Hawkins
EXTT10=Scarlett
EXTT11=T'Pau
EXTT12=Curtis Stigers
EXTT13=Take That
EXTT14=Boyzone
EXTT15=Let Loose
EXTT16=Jimmy Nail
EXTT17=Roxy Music
EXTT18=Spandau Ballet
PLAYORDER=
